<?xml version="1.0" standalone="no"?>
<svg xmlns="http://www.w3.org/2000/svg" xmlns:xlink="http://www.w3.org/1999/xlink" width="510pt" height="372pt" viewBox="0.00 0.00 510.00 372.00">
<g id="graph0" class="graph" transform="translate(4,368) scale(1)" data-name="">
<polygon fill="white" stroke="none" points="-4,4 -4,-368 506,-368 506,4 -4,4" style=""/>
<text text-anchor="middle" x="251" y="-41.8" font-family="Times,serif" font-size="14.00" style="">FAVI</text>
<text text-anchor="middle" x="251" y="-25" font-family="Times,serif" font-size="14.00" style="">System and modules</text>
<text text-anchor="middle" x="251" y="-8.2" font-family="Times,serif" font-size="14.00" style="">v0.2</text>
<g id="clust1" class="cluster" data-name="cluster_0">

<polygon fill="#e5e5e5" stroke="black" stroke-width="2" points="8,-82.4 8,-320 494,-320 494,-82.4 8,-82.4" style=""/>
<text text-anchor="middle" x="251" y="-303.4" font-family="Times,serif" font-size="14.00" style="">FAVI System</text>
</g>
<!-- user -->
<g id="node1" class="node" pointer-events="visible" data-name="user">

<polygon fill="none" stroke="black" points="282,-364 228,-364 228,-328 282,-328 282,-364" style=""/>
<text text-anchor="middle" x="255" y="-341.8" font-family="Times,serif" font-size="14.00" style="">User</text>
</g>
<!-- tabulaAetherea -->
<g id="node2" class="node" pointer-events="visible" data-name="tabulaAetherea">

<polygon fill="none" stroke="darkmagenta" points="309.39,-287 200.61,-287 200.61,-245.8 309.39,-245.8 309.39,-287" style=""/>
<text text-anchor="middle" x="255" y="-270.6" font-family="Times,serif" font-size="14.00" style="">TABA</text>
<text text-anchor="middle" x="255" y="-253.8" font-family="Times,serif" font-size="14.00" style="">Tabula Aetherea</text>
</g>
<!-- user&#45;&gt;tabulaAetherea -->
<g id="edge1" class="edge" data-name="user-&gt;tabulaAetherea">

<path fill="none" stroke="black" d="M255,-327.78C255,-319.18 255,-308.5 255,-298.53" style=""/>
<polygon fill="black" stroke="black" points="258.5,-298.83 255,-288.83 251.5,-298.83 258.5,-298.83" style=""/>
</g>
<!-- editorisMelicorum -->
<g id="node3" class="node" pointer-events="visible" data-name="editorisMelicorum">

<polygon fill="none" stroke="red" points="142.04,-131.8 15.96,-131.8 15.96,-90.6 142.04,-90.6 142.04,-131.8" style=""/>
<text text-anchor="middle" x="79" y="-115.4" font-family="Times,serif" font-size="14.00" style="">EMEL</text>
<text text-anchor="middle" x="79" y="-98.6" font-family="Times,serif" font-size="14.00" style="">Editoris Melicorum</text>
</g>
<!-- tabulaAetherea&#45;&gt;editorisMelicorum -->
<g id="edge2" class="edge" data-name="tabulaAetherea-&gt;editorisMelicorum">

<path fill="none" stroke="darkmagenta" d="M200.19,-245.49C180.41,-236.55 158.83,-224.59 142,-209.6 120.77,-190.69 103.8,-163.02 92.85,-142" style=""/>
<polygon fill="darkmagenta" stroke="darkmagenta" points="96.11,-140.71 88.5,-133.35 89.86,-143.85 96.11,-140.71" style=""/>
</g>
<!-- editorisTabularum -->
<g id="node4" class="node" pointer-events="visible" data-name="editorisTabularum">

<polygon fill="none" stroke="orange" points="276.75,-209.4 151.25,-209.4 151.25,-168.2 276.75,-168.2 276.75,-209.4" style=""/>
<text text-anchor="middle" x="214" y="-193" font-family="Times,serif" font-size="14.00" style="">ETAB</text>
<text text-anchor="middle" x="214" y="-176.2" font-family="Times,serif" font-size="14.00" style="">Editoris Tabularum</text>
</g>
<!-- tabulaAetherea&#45;&gt;editorisTabularum -->
<g id="edge3" class="edge" data-name="tabulaAetherea-&gt;editorisTabularum">

<path fill="none" stroke="darkmagenta" d="M244.23,-245.54C239.98,-237.7 235,-228.52 230.33,-219.9" style=""/>
<polygon fill="darkmagenta" stroke="darkmagenta" points="233.41,-218.25 225.56,-211.12 227.25,-221.58 233.41,-218.25" style=""/>
</g>
<!-- architectusCalculonis -->
<g id="node5" class="node" pointer-events="visible" data-name="architectusCalculonis">

<polygon fill="none" stroke="blue" points="303.91,-131.8 160.09,-131.8 160.09,-90.6 303.91,-90.6 303.91,-131.8" style=""/>
<text text-anchor="middle" x="232" y="-115.4" font-family="Times,serif" font-size="14.00" style="">ARCA</text>
<text text-anchor="middle" x="232" y="-98.6" font-family="Times,serif" font-size="14.00" style="">Architectus Calculonis</text>
</g>
<!-- tabulaAetherea&#45;&gt;architectusCalculonis -->
<g id="edge4" class="edge" data-name="tabulaAetherea-&gt;architectusCalculonis">

<path fill="none" stroke="darkmagenta" d="M269.54,-245.31C282.06,-225.39 296.58,-194.16 286,-168 281.83,-157.7 274.76,-148.26 267.07,-140.18" style=""/>
<polygon fill="darkmagenta" stroke="darkmagenta" points="269.64,-137.79 260.03,-133.33 264.76,-142.81 269.64,-137.79" style=""/>
</g>
<!-- calendariumIhterretialum -->
<g id="node6" class="node" pointer-events="visible" data-name="calendariumIhterretialum">

<polygon fill="none" stroke="green" points="486.39,-131.8 321.61,-131.8 321.61,-90.6 486.39,-90.6 486.39,-131.8" style=""/>
<text text-anchor="middle" x="404" y="-115.4" font-family="Times,serif" font-size="14.00" style="">CALI</text>
<text text-anchor="middle" x="404" y="-98.6" font-family="Times,serif" font-size="14.00" style="">Calendarium Interretialum</text>
</g>
<!-- tabulaAetherea&#45;&gt;calendariumIhterretialum -->
<g id="edge5" class="edge" data-name="tabulaAetherea-&gt;calendariumIhterretialum">

<path fill="none" stroke="darkmagenta" d="M274.48,-245.37C300.58,-218.53 347.04,-170.76 376.64,-140.33" style=""/>
<polygon fill="darkmagenta" stroke="darkmagenta" points="379,-142.93 383.46,-133.32 373.98,-138.05 379,-142.93" style=""/>
</g>
<!-- editorisTabularum&#45;&gt;editorisMelicorum -->
<g id="edge6" class="edge" data-name="editorisTabularum-&gt;editorisMelicorum">

<path fill="none" stroke="orange" d="M178.18,-167.74C161.72,-158.52 142.02,-147.49 124.53,-137.69" style=""/>
<polygon fill="orange" stroke="orange" points="126.28,-134.66 115.84,-132.83 122.86,-140.77 126.28,-134.66" style=""/>
</g>
<!-- editorisTabularum&#45;&gt;architectusCalculonis -->
<g id="edge7" class="edge" data-name="editorisTabularum-&gt;architectusCalculonis">

<path fill="none" stroke="orange" d="M218.73,-167.94C220.53,-160.36 222.64,-151.53 224.63,-143.16" style=""/>
<polygon fill="orange" stroke="orange" points="227.98,-144.2 226.89,-133.67 221.17,-142.58 227.98,-144.2" style=""/>
</g>
<!-- editorisTabularum&#45;&gt;calendariumIhterretialum -->
<g id="edge8" class="edge" data-name="editorisTabularum-&gt;calendariumIhterretialum">

<path fill="none" stroke="orange" d="M264.42,-167.74C288.56,-158.13 317.68,-146.55 343.05,-136.45" style=""/>
<polygon fill="orange" stroke="orange" points="344.27,-139.73 352.27,-132.78 341.68,-133.23 344.27,-139.73" style=""/>
</g>
</g>
</svg>