<?xml version="1.0" standalone="no"?>
<svg xmlns="http://www.w3.org/2000/svg" xmlns:xlink="http://www.w3.org/1999/xlink" width="139pt" height="294pt" viewBox="0.00 0.00 139.00 294.40">
<g id="graph0" class="graph" transform="translate(4,290.3999938964844) scale(1)" data-name="">
<polygon fill="white" stroke="none" points="-4,4 -4,-290.4 135,-290.4 135,4 -4,4" style=""/>
<text text-anchor="middle" x="65.5" y="-41.8" font-family="Times,serif" font-size="14.00" style="">FAVI module</text>
<text text-anchor="middle" x="65.5" y="-25" font-family="Times,serif" font-size="14.00" style="">implementation</text>
<text text-anchor="middle" x="65.5" y="-8.2" font-family="Times,serif" font-size="14.00" style="">v0.2</text>
<g id="clust1" class="cluster" data-name="cluster_0">

<polygon fill="none" stroke="darkorchid" stroke-width="2" points="8,-82.4 8,-242.4 123,-242.4 123,-82.4 8,-82.4" style=""/>
<text text-anchor="middle" x="65.5" y="-225.8" font-family="Times,serif" font-size="14.00" fill="darkorchid" style="">Docker Container</text>
</g>
<!-- extModule -->
<g id="node1" class="node" pointer-events="visible" data-name="extModule">

<polygon fill="none" stroke="black" points="128.43,-286.4 1.57,-286.4 1.57,-250.4 128.43,-250.4 128.43,-286.4" style=""/>
<text text-anchor="middle" x="65" y="-264.2" font-family="Times,serif" font-size="14.00" style="">other FAVI module</text>
</g>
<!-- webServer -->
<g id="node2" class="node" pointer-events="visible" data-name="webServer">

<polygon fill="none" stroke="blue" points="106.47,-209.4 23.53,-209.4 23.53,-168.2 106.47,-168.2 106.47,-209.4" style=""/>
<text text-anchor="middle" x="65" y="-193" font-family="Times,serif" font-size="14.00" fill="blue" style="">Module</text>
<text text-anchor="middle" x="65" y="-176.2" font-family="Times,serif" font-size="14.00" fill="blue" style="">Web Server</text>
</g>
<!-- extModule&#45;&gt;webServer -->
<g id="edge1" class="edge" data-name="extModule-&gt;webServer">

<path fill="none" stroke="black" d="M65,-250.18C65,-241.58 65,-230.9 65,-220.93" style=""/>
<polygon fill="black" stroke="black" points="68.5,-221.23 65,-211.23 61.5,-221.23 68.5,-221.23" style=""/>
</g>
<!-- coreModule -->
<g id="node3" class="node" pointer-events="visible" data-name="coreModule">

<polygon fill="none" stroke="orange" points="94.55,-131.8 35.45,-131.8 35.45,-90.6 94.55,-90.6 94.55,-131.8" style=""/>
<text text-anchor="middle" x="65" y="-115.4" font-family="Times,serif" font-size="14.00" fill="orange" style="">Module</text>
<text text-anchor="middle" x="65" y="-98.6" font-family="Times,serif" font-size="14.00" fill="orange" style="">Core</text>
</g>
<!-- webServer&#45;&gt;coreModule -->
<g id="edge2" class="edge" data-name="webServer-&gt;coreModule">

<path fill="none" stroke="blue" d="M65,-167.94C65,-160.44 65,-151.73 65,-143.44" style=""/>
<polygon fill="blue" stroke="blue" points="68.5,-143.71 65,-133.71 61.5,-143.71 68.5,-143.71" style=""/>
</g>
</g>
</svg>