<?xml version="1.0" standalone="no"?>
<svg xmlns="http://www.w3.org/2000/svg" xmlns:xlink="http://www.w3.org/1999/xlink" width="328pt" height="355pt" viewBox="0.00 0.00 328.00 355.20">
<g id="graph0" class="graph" transform="translate(34.526009511743155,311.6498470750777) scale(0.8362822037527985)" data-name="">
<polygon fill="white" stroke="none" points="-4,4 -4,-351.2 324,-351.2 324,4 -4,4"/>
<text text-anchor="middle" x="160" y="-25" font-family="Times,serif" font-size="14.00">FAVI</text>
<text text-anchor="middle" x="160" y="-8.2" font-family="Times,serif" font-size="14.00">System and modules</text>
<g id="clust1" class="cluster" data-name="cluster_0">

<polygon fill="#e5e5e5" stroke="black" stroke-width="2" points="8,-65.6 8,-303.2 312,-303.2 312,-65.6 8,-65.6"/>
<text text-anchor="middle" x="160" y="-286.6" font-family="Times,serif" font-size="14.00">FAVI System</text>
</g>
<!-- user -->
<g id="node1" class="node" pointer-events="visible" data-name="user">

<polygon fill="none" stroke="black" points="182,-347.2 128,-347.2 128,-311.2 182,-311.2 182,-347.2"/>
<text text-anchor="middle" x="155" y="-325" font-family="Times,serif" font-size="14.00">User</text>
</g>
<!-- tabulaAetherea -->
<g id="node2" class="node" pointer-events="visible" data-name="tabulaAetherea">

<polygon fill="none" stroke="darkmagenta" points="209.39,-270.2 100.61,-270.2 100.61,-229 209.39,-229 209.39,-270.2"/>
<text text-anchor="middle" x="155" y="-253.8" font-family="Times,serif" font-size="14.00">TABA</text>
<text text-anchor="middle" x="155" y="-237" font-family="Times,serif" font-size="14.00">Tabula Aetherea</text>
</g>
<!-- user&#45;&gt;tabulaAetherea -->
<g id="edge1" class="edge" data-name="user-&gt;tabulaAetherea">

<path fill="none" stroke="black" d="M155,-310.98C155,-302.38 155,-291.7 155,-281.73"/>
<polygon fill="black" stroke="black" points="158.5,-282.03 155,-272.03 151.5,-282.03 158.5,-282.03"/>
</g>
<!-- editorisMelicorum -->
<g id="node3" class="node" pointer-events="visible" data-name="editorisMelicorum">

<polygon fill="none" stroke="red" points="142.04,-115 15.96,-115 15.96,-73.8 142.04,-73.8 142.04,-115"/>
<text text-anchor="middle" x="79" y="-98.6" font-family="Times,serif" font-size="14.00">EMEL</text>
<text text-anchor="middle" x="79" y="-81.8" font-family="Times,serif" font-size="14.00">Editoris Melicorum</text>
</g>
<!-- tabulaAetherea&#45;&gt;editorisMelicorum -->
<g id="edge2" class="edge" data-name="tabulaAetherea-&gt;editorisMelicorum">

<path fill="none" stroke="darkmagenta" d="M117.35,-228.66C104.09,-219.6 90.61,-207.56 83,-192.8 72.54,-172.53 71.99,-146.6 73.81,-126.59"/>
<polygon fill="darkmagenta" stroke="darkmagenta" points="77.27,-127.14 74.96,-116.8 70.32,-126.32 77.27,-127.14"/>
</g>
<!-- editorisTabularum -->
<g id="node4" class="node" pointer-events="visible" data-name="editorisTabularum">

<polygon fill="none" stroke="orange" points="217.75,-192.6 92.25,-192.6 92.25,-151.4 217.75,-151.4 217.75,-192.6"/>
<text text-anchor="middle" x="155" y="-176.2" font-family="Times,serif" font-size="14.00">ETAB</text>
<text text-anchor="middle" x="155" y="-159.4" font-family="Times,serif" font-size="14.00">Editoris Tabularum</text>
</g>
<!-- tabulaAetherea&#45;&gt;editorisTabularum -->
<g id="edge3" class="edge" data-name="tabulaAetherea-&gt;editorisTabularum">

<path fill="none" stroke="darkmagenta" d="M155,-228.74C155,-221.24 155,-212.53 155,-204.24"/>
<polygon fill="darkmagenta" stroke="darkmagenta" points="158.5,-204.51 155,-194.51 151.5,-204.51 158.5,-204.51"/>
</g>
<!-- architectusCalculonis -->
<g id="node5" class="node" pointer-events="visible" data-name="architectusCalculonis">

<polygon fill="none" stroke="blue" points="303.91,-115 160.09,-115 160.09,-73.8 303.91,-73.8 303.91,-115"/>
<text text-anchor="middle" x="232" y="-98.6" font-family="Times,serif" font-size="14.00">ARCA</text>
<text text-anchor="middle" x="232" y="-81.8" font-family="Times,serif" font-size="14.00">Architectus Calculonis</text>
</g>
<!-- tabulaAetherea&#45;&gt;architectusCalculonis -->
<g id="edge4" class="edge" data-name="tabulaAetherea-&gt;architectusCalculonis">

<path fill="none" stroke="darkmagenta" d="M192.57,-228.62C205.82,-219.55 219.31,-207.52 227,-192.8 237.57,-172.57 238.39,-146.64 236.81,-126.62"/>
<polygon fill="darkmagenta" stroke="darkmagenta" points="240.3,-126.4 235.77,-116.82 233.34,-127.14 240.3,-126.4"/>
</g>
<!-- editorisTabularum&#45;&gt;editorisMelicorum -->
<g id="edge5" class="edge" data-name="editorisTabularum-&gt;editorisMelicorum">

<path fill="none" stroke="orange" d="M135.03,-151.14C126.46,-142.61 116.29,-132.5 106.99,-123.24"/>
<polygon fill="orange" stroke="orange" points="109.73,-121.03 100.17,-116.46 104.79,-125.99 109.73,-121.03"/>
</g>
<!-- editorisTabularum&#45;&gt;architectusCalculonis -->
<g id="edge6" class="edge" data-name="editorisTabularum-&gt;architectusCalculonis">

<path fill="none" stroke="rgb(255, 165, 0)" d="M175.23,-151.14C183.92,-142.61 194.21,-132.5 203.64,-123.24"/>
<polygon fill="orange" stroke="orange" points="205.87,-125.96 210.56,-116.45 200.97,-120.96 205.87,-125.96"/>
</g>
</g>
</svg>