<?xml version="1.0" standalone="no"?>
<svg xmlns="http://www.w3.org/2000/svg" xmlns:xlink="http://www.w3.org/1999/xlink" width="328pt" height="372pt" viewBox="0.00 0.00 328.00 372.00">
<g id="graph0" class="graph" transform="translate(28.04787142690941,319.9027755233942) scale(0.7767934965051874)" data-name="">
<polygon fill="white" stroke="none" points="-4,4 -4,-368 324,-368 324,4 -4,4" style=""/>
<text text-anchor="middle" x="160" y="-41.8" font-family="Times,serif" font-size="14.00" style="">FAVI</text>
<text text-anchor="middle" x="160" y="-25" font-family="Times,serif" font-size="14.00" style="">System and modules</text>
<text text-anchor="middle" x="160" y="-8.2" font-family="Times,serif" font-size="14.00" style="">v0.1</text>
<g id="clust1" class="cluster" data-name="cluster_0">

<polygon fill="#e5e5e5" stroke="black" stroke-width="2" points="8,-82.4 8,-320 312,-320 312,-82.4 8,-82.4" style=""/>
<text text-anchor="middle" x="160" y="-303.4" font-family="Times,serif" font-size="14.00" style="">FAVI System</text>
</g>
<!-- user -->
<g id="node1" class="node" pointer-events="visible" data-name="user">

<polygon fill="none" stroke="black" points="182,-364 128,-364 128,-328 182,-328 182,-364" style=""/>
<text text-anchor="middle" x="155" y="-341.8" font-family="Times,serif" font-size="14.00" style="">User</text>
</g>
<!-- tabulaAetherea -->
<g id="node2" class="node" pointer-events="visible" data-name="tabulaAetherea">

<polygon fill="none" stroke="darkmagenta" points="209.39,-287 100.61,-287 100.61,-245.8 209.39,-245.8 209.39,-287" style=""/>
<text text-anchor="middle" x="155" y="-270.6" font-family="Times,serif" font-size="14.00" style="">TABA</text>
<text text-anchor="middle" x="155" y="-253.8" font-family="Times,serif" font-size="14.00" style="">Tabula Aetherea</text>
</g>
<!-- user&#45;&gt;tabulaAetherea -->
<g id="edge1" class="edge" data-name="user-&gt;tabulaAetherea">

<path fill="none" stroke="black" d="M155,-327.78C155,-319.18 155,-308.5 155,-298.53" style=""/>
<polygon fill="black" stroke="black" points="158.5,-298.83 155,-288.83 151.5,-298.83 158.5,-298.83" style=""/>
</g>
<!-- editorisMelicorum -->
<g id="node3" class="node" pointer-events="visible" data-name="editorisMelicorum">

<polygon fill="none" stroke="red" points="142.04,-131.8 15.96,-131.8 15.96,-90.6 142.04,-90.6 142.04,-131.8" style=""/>
<text text-anchor="middle" x="79" y="-115.4" font-family="Times,serif" font-size="14.00" style="">EMEL</text>
<text text-anchor="middle" x="79" y="-98.6" font-family="Times,serif" font-size="14.00" style="">Editoris Melicorum</text>
</g>
<!-- tabulaAetherea&#45;&gt;editorisMelicorum -->
<g id="edge2" class="edge" data-name="tabulaAetherea-&gt;editorisMelicorum">

<path fill="none" stroke="darkmagenta" d="M117.35,-245.46C104.09,-236.4 90.61,-224.36 83,-209.6 72.54,-189.33 71.99,-163.4 73.81,-143.39" style=""/>
<polygon fill="darkmagenta" stroke="darkmagenta" points="77.27,-143.94 74.96,-133.6 70.32,-143.12 77.27,-143.94" style=""/>
</g>
<!-- editorisTabularum -->
<g id="node4" class="node" pointer-events="visible" data-name="editorisTabularum">

<polygon fill="none" stroke="orange" points="217.75,-209.4 92.25,-209.4 92.25,-168.2 217.75,-168.2 217.75,-209.4" style=""/>
<text text-anchor="middle" x="155" y="-193" font-family="Times,serif" font-size="14.00" style="">ETAB</text>
<text text-anchor="middle" x="155" y="-176.2" font-family="Times,serif" font-size="14.00" style="">Editoris Tabularum</text>
</g>
<!-- tabulaAetherea&#45;&gt;editorisTabularum -->
<g id="edge3" class="edge" data-name="tabulaAetherea-&gt;editorisTabularum">

<path fill="none" stroke="darkmagenta" d="M155,-245.54C155,-238.04 155,-229.33 155,-221.04" style=""/>
<polygon fill="darkmagenta" stroke="darkmagenta" points="158.5,-221.31 155,-211.31 151.5,-221.31 158.5,-221.31" style=""/>
</g>
<!-- architectusCalculonis -->
<g id="node5" class="node" pointer-events="visible" data-name="architectusCalculonis">

<polygon fill="none" stroke="blue" points="303.91,-131.8 160.09,-131.8 160.09,-90.6 303.91,-90.6 303.91,-131.8" style=""/>
<text text-anchor="middle" x="232" y="-115.4" font-family="Times,serif" font-size="14.00" style="">ARCA</text>
<text text-anchor="middle" x="232" y="-98.6" font-family="Times,serif" font-size="14.00" style="">Architectus Calculonis</text>
</g>
<!-- tabulaAetherea&#45;&gt;architectusCalculonis -->
<g id="edge4" class="edge" data-name="tabulaAetherea-&gt;architectusCalculonis">

<path fill="none" stroke="darkmagenta" d="M192.57,-245.42C205.82,-236.35 219.31,-224.32 227,-209.6 237.57,-189.37 238.39,-163.44 236.81,-143.42" style=""/>
<polygon fill="darkmagenta" stroke="darkmagenta" points="240.3,-143.2 235.77,-133.62 233.34,-143.94 240.3,-143.2" style=""/>
</g>
<!-- editorisTabularum&#45;&gt;editorisMelicorum -->
<g id="edge5" class="edge" data-name="editorisTabularum-&gt;editorisMelicorum">

<path fill="none" stroke="orange" d="M135.03,-167.94C126.46,-159.41 116.29,-149.3 106.99,-140.04" style=""/>
<polygon fill="orange" stroke="orange" points="109.73,-137.83 100.17,-133.26 104.79,-142.79 109.73,-137.83" style=""/>
</g>
<!-- editorisTabularum&#45;&gt;architectusCalculonis -->
<g id="edge6" class="edge" data-name="editorisTabularum-&gt;architectusCalculonis">

<path fill="none" stroke="orange" d="M175.23,-167.94C183.92,-159.41 194.21,-149.3 203.64,-140.04" style=""/>
<polygon fill="orange" stroke="orange" points="205.87,-142.76 210.56,-133.25 200.97,-137.76 205.87,-142.76" style=""/>
</g>
</g>
</svg>